# xmcd
#
# Track frame offsets: 
#        150
#        20536
#        35182
#        52775
#        66461
#        83056
#        108418
#        125086
#        141876
#        169786
#        193211
#        212937
#
# Disc length: 3194 seconds
#
# Revision: 1
# Processed by: cddbd v1.5.2PL0 Copyright (c) Steve Scherf et al.
# Submitted via: ExactAudioCopyFreeDBPlugin 1.0
#
DISCID=b60c780c
DTITLE=The Band of Heathens - One Foot In The Ether
DYEAR=2009
DGENRE=Americana
TTITLE0=L.A. County Blues
TTITLE1=Say
TTITLE2=Shine The Light
TTITLE3=Golden Calf
TTITLE4=What's This World
TTITLE5=You're Gonna Miss Me
TTITLE6=Right Here With Me
TTITLE7=Let Your Heart Not Be Troubled
TTITLE8=Somebody Tell The Truth
TTITLE9=Look At Miss Ohio
TTITLE10=Talking Out Loud
TTITLE11=Hey Rider
EXTD=
EXTT0=
EXTT1=
EXTT2=
EXTT3=
EXTT4=
EXTT5=
EXTT6=
EXTT7=
EXTT8=
EXTT9=
EXTT10=
EXTT11=
PLAYORDER=
